<?xml version="1.0" standalone="no"?><!DOCTYPE svg PUBLIC "-//W3C//DTD SVG 1.1//EN" "http://www.w3.org/Graphics/SVG/1.1/DTD/svg11.dtd"><svg t="1603715404645" class="icon" viewBox="0 0 1178 1024" version="1.1" xmlns="http://www.w3.org/2000/svg" p-id="5905" xmlns:xlink="http://www.w3.org/1999/xlink" width="230.078125" height="200"><defs><style type="text/css"></style></defs><path d="M1177.6 0 1177.6 787.692314 420.571418 787.692314 168.228582 1024 168.228582 787.692314 0 787.692314 0 0 1177.6 0 1177.6 0ZM925.257142 472.615373C971.688228 472.615373 1009.371428 437.405542 1009.371428 393.846144 1009.371428 350.286771 971.688228 315.076915 925.257142 315.076915 878.741942 315.076915 841.142858 350.286771 841.142858 393.846144 841.142858 437.405542 878.741942 472.615373 925.257142 472.615373L925.257142 472.615373ZM588.8 472.615373C635.231086 472.615373 672.914286 437.405542 672.914286 393.846144 672.914286 350.286771 635.231086 315.076915 588.8 315.076915 542.368914 315.076915 504.685722 350.286771 504.685722 393.846144 504.685722 437.405542 542.368914 472.615373 588.8 472.615373L588.8 472.615373ZM252.342861 472.615373C298.858061 472.615373 336.457139 437.405542 336.457139 393.846144 336.457139 350.286771 298.858061 315.076915 252.342861 315.076915 205.827661 315.076915 168.228582 350.286771 168.228582 393.846144 168.228582 437.405542 205.827661 472.615373 252.342861 472.615373L252.342861 472.615373Z" p-id="5906" fill="#cdcdcd"></path></svg>